<?xml version="1.0" encoding="utf-8"?>
<!-- Generator: Adobe Illustrator 16.0.0, SVG Export Plug-In . SVG Version: 6.00 Build 0)  -->
<!DOCTYPE svg PUBLIC "-//W3C//DTD SVG 1.1//EN" "http://www.w3.org/Graphics/SVG/1.1/DTD/svg11.dtd">
<svg version="1.1" id="Logo" xmlns="http://www.w3.org/2000/svg" xmlns:xlink="http://www.w3.org/1999/xlink" x="0px" y="0px"
	 width="266.667px" height="269.292px" viewBox="0 0 266.667 269.292" enable-background="new 0 0 266.667 269.292"
	 xml:space="preserve">
<g>
	<path d="M72.93,246.267c0.844-1.745,1.848-2.939,3.014-3.584s2.356-0.673,3.573-0.084c1.216,0.588,1.933,1.543,2.151,2.865
		c0.218,1.321-0.092,2.848-0.928,4.578c-0.839,1.735-1.845,2.929-3.016,3.579s-2.365,0.682-3.582,0.094
		c-1.211-0.586-1.926-1.54-2.144-2.862C71.78,249.531,72.091,248.002,72.93,246.267z M74.391,246.973
		c-0.646,1.335-0.934,2.489-0.864,3.462c0.07,0.974,0.48,1.642,1.231,2.005c0.756,0.365,1.538,0.272,2.345-0.28
		c0.807-0.552,1.532-1.493,2.175-2.823c0.645-1.335,0.934-2.49,0.866-3.465c-0.068-0.976-0.481-1.646-1.237-2.012
		c-0.751-0.364-1.53-0.271-2.335,0.279S75.038,245.634,74.391,246.973z"/>
	<path d="M82.554,257.133l4.076-10.974l7.143,2.653l-0.493,1.328l-5.676-2.108l-1.222,3.29l4.618,1.715l-0.488,1.313l-4.618-1.715
		l-1.873,5.043L82.554,257.133z"/>
	<path d="M106.444,264.19l1.934-11.544l7.19,1.204l-0.234,1.397l-5.654-0.947l-0.58,3.461l5.159,0.864l-0.231,1.381l-5.159-0.864
		l-0.654,3.908l5.784,0.969l-0.234,1.397L106.444,264.19z"/>
	<path d="M117.245,265.893l5.099-11.384l1.717,0.124l3.429,11.999l-1.577-0.114l-0.985-3.522l-4.659-0.336l-1.48,3.345
		L117.245,265.893z M120.907,261.268l3.607,0.261l-1.436-5.282L120.907,261.268z"/>
	<path d="M131.998,262.773c0.016,0.851,0.279,1.52,0.789,2.007s1.186,0.723,2.031,0.705c0.77-0.015,1.381-0.221,1.838-0.617
		c0.457-0.396,0.678-0.915,0.666-1.558c-0.018-0.867-0.854-1.507-2.51-1.919c-0.332-0.082-0.588-0.146-0.77-0.191
		c-1.332-0.347-2.213-0.743-2.645-1.188s-0.656-1.073-0.672-1.886c-0.02-1.037,0.307-1.883,0.98-2.536s1.564-0.991,2.674-1.013
		c1.268-0.025,2.258,0.283,2.967,0.926c0.711,0.643,1.078,1.562,1.102,2.759v0.033l-1.531,0.03
		c-0.076-0.778-0.324-1.371-0.748-1.777c-0.422-0.406-0.994-0.603-1.713-0.588c-0.664,0.013-1.191,0.192-1.584,0.538
		c-0.391,0.345-0.58,0.798-0.57,1.358c0.012,0.56,0.17,0.969,0.475,1.226c0.305,0.258,1.1,0.522,2.385,0.794
		c1.494,0.316,2.48,0.708,2.959,1.177s0.729,1.153,0.746,2.054c0.021,1.136-0.334,2.047-1.07,2.731s-1.742,1.039-3.016,1.064
		c-1.301,0.026-2.326-0.316-3.072-1.026c-0.748-0.71-1.165-1.734-1.252-3.073L131.998,262.773z"/>
	<path d="M146.438,265.842l-1.16-10.223l-3.536,0.401l-0.16-1.407l8.603-0.977l0.16,1.408l-3.52,0.399l1.16,10.223L146.438,265.842z
		"/>
	<path d="M168.406,261.624l-3.484-11.174l1.479-0.461l3.063,9.821l5.701-1.778l0.422,1.353L168.406,261.624z"/>
	<path d="M177.148,252.6c-0.75-1.788-0.98-3.332-0.693-4.632c0.289-1.3,1.057-2.211,2.303-2.733s2.436-0.428,3.57,0.284
		c1.137,0.712,2.074,1.954,2.818,3.727c0.746,1.777,0.975,3.32,0.686,4.629c-0.287,1.309-1.053,2.225-2.299,2.747
		c-1.242,0.521-2.43,0.425-3.564-0.287S177.892,254.377,177.148,252.6z M178.644,251.972c0.572,1.367,1.248,2.348,2.023,2.939
		c0.773,0.592,1.547,0.727,2.316,0.403c0.775-0.325,1.223-0.973,1.342-1.943c0.121-0.97-0.105-2.136-0.676-3.498
		c-0.574-1.368-1.248-2.349-2.025-2.943c-0.775-0.595-1.551-0.729-2.326-0.404c-0.77,0.323-1.215,0.969-1.336,1.937
		S178.068,250.6,178.644,251.972z"/>
	<path d="M191.328,252.756l-5.525-10.318l1.619-0.867l8.438,6.366l-4.531-8.459l1.248-0.669l5.527,10.318l-1.59,0.852l-8.488-6.34
		l4.531,8.459L191.328,252.756z"/>
	<path d="M198.955,234.784c1.221-0.811,2.398-1.012,3.533-0.604c1.133,0.407,2.244,1.431,3.33,3.068
		c1.035,1.561,1.52,2.974,1.449,4.238c-0.07,1.266-0.684,2.283-1.842,3.051l-3.246,2.154l-6.473-9.753L198.955,234.784z
		 M199.632,236.015l-1.84,1.221l4.924,7.42l1.84-1.221c0.805-0.534,1.199-1.235,1.186-2.102c-0.016-0.867-0.439-1.93-1.275-3.188
		c-0.871-1.313-1.686-2.137-2.439-2.469C201.273,235.344,200.474,235.456,199.632,236.015z"/>
	<path d="M208.49,235.287c-1.219-1.507-1.871-2.926-1.957-4.255c-0.086-1.328,0.396-2.418,1.447-3.267
		c1.051-0.85,2.221-1.091,3.51-0.724c1.289,0.366,2.537,1.297,3.746,2.792c1.211,1.499,1.861,2.917,1.951,4.254
		c0.088,1.337-0.393,2.43-1.443,3.279c-1.047,0.846-2.215,1.086-3.502,0.719C210.953,237.719,209.703,236.786,208.49,235.287z
		 M209.751,234.267c0.934,1.153,1.854,1.906,2.764,2.258c0.908,0.353,1.688,0.266,2.338-0.259c0.652-0.528,0.902-1.275,0.746-2.24
		c-0.154-0.966-0.697-2.022-1.625-3.171c-0.934-1.153-1.855-1.907-2.766-2.261c-0.912-0.354-1.695-0.268-2.348,0.261
		c-0.648,0.524-0.896,1.269-0.742,2.231C208.271,232.05,208.816,233.109,209.751,234.267z"/>
	<path d="M222.123,231.509l-8.176-8.376l1.314-1.283l9.875,3.771l-6.703-6.867l1.014-0.989l8.176,8.376l-1.291,1.26l-9.916-3.73
		l6.703,6.866L222.123,231.509z"/>
</g>
<g>
	<path d="M33.93,67.174l-9.48-6.866l2.377-3.282c0.683-0.943,1.431-1.489,2.245-1.639c0.813-0.149,1.667,0.099,2.562,0.747
		c0.476,0.345,0.839,0.732,1.091,1.162c0.252,0.43,0.388,0.896,0.41,1.4c0.013,0.403-0.058,0.799-0.214,1.188
		c-0.156,0.389-0.513,0.968-1.07,1.737l-1.01,1.395l4.003,2.899L33.93,67.174z M27.741,58.207l-1.217,1.681l3.156,2.285l1.145-1.581
		c0.538-0.743,0.791-1.35,0.759-1.82c-0.032-0.471-0.333-0.912-0.902-1.324c-0.56-0.406-1.065-0.553-1.516-0.442
		S28.241,57.518,27.741,58.207z"/>
	<path d="M37.236,55.336l-5.431-4.801l1.026-1.16l5.499,4.861c0.831,0.735,1.582,1.127,2.252,1.177s1.284-0.24,1.84-0.869
		c0.549-0.621,0.754-1.264,0.617-1.929c-0.138-0.665-0.617-1.358-1.436-2.083l-5.499-4.861l1.042-1.179l5.431,4.801
		c1.218,1.077,1.901,2.12,2.048,3.13c0.148,1.01-0.233,2.03-1.142,3.058c-0.902,1.021-1.864,1.521-2.887,1.5
		C39.574,56.962,38.454,56.413,37.236,55.336z"/>
	<path d="M50.733,47.528L43.72,40l-2.604,2.426l-0.966-1.037l6.334-5.901l0.966,1.037l-2.592,2.414l7.013,7.528L50.733,47.528z"/>
	<path d="M66.724,34.783l-6.172-9.946l6.474-4.018l0.747,1.204l-5.145,3.192l1.851,2.982l4.185-2.598l0.739,1.19l-4.186,2.597
		l2.836,4.571L66.724,34.783z"/>
	<path d="M76.724,28.851l-5.169-10.502l1.39-0.684l4.543,9.231l5.358-2.637l0.625,1.271L76.724,28.851z"/>
	<path d="M85.6,24.554l-0.126-12.474l1.612-0.605l8.131,9.467l-1.48,0.556l-2.367-2.789l-4.373,1.642l0.054,3.658L85.6,24.554z
		 M86.994,18.822l3.385-1.271l-3.512-4.198L86.994,18.822z"/>
	<path d="M101.238,7.138l1.544-0.412l-0.543,12.277l-1.631,0.435l-6.675-10.35l1.552-0.414l5.482,8.853L101.238,7.138z"/>
	<path d="M107.498,11.714c-0.313-1.913-0.179-3.468,0.403-4.666s1.541-1.905,2.874-2.124s2.469,0.15,3.408,1.106
		c0.938,0.956,1.564,2.383,1.875,4.279c0.312,1.902,0.176,3.456-0.408,4.662s-1.542,1.918-2.875,2.137
		c-1.328,0.218-2.461-0.151-3.399-1.107C108.435,15.045,107.81,13.616,107.498,11.714z M109.099,11.452
		c0.24,1.463,0.668,2.573,1.285,3.329c0.617,0.756,1.336,1.066,2.16,0.931c0.829-0.136,1.415-0.662,1.757-1.578
		s0.394-2.103,0.154-3.561c-0.24-1.463-0.668-2.574-1.285-3.333c-0.617-0.758-1.34-1.07-2.169-0.934
		c-0.824,0.135-1.407,0.659-1.75,1.572C108.909,8.792,108.858,9.983,109.099,11.452z"/>
	<path d="M119.897,11.294l-0.473-7.233l1.545-0.101l0.479,7.324c0.073,1.107,0.329,1.915,0.77,2.422s1.08,0.734,1.918,0.679
		c0.828-0.054,1.426-0.366,1.796-0.935s0.52-1.398,0.448-2.489l-0.479-7.324l1.57-0.103l0.473,7.233
		c0.106,1.622-0.145,2.844-0.751,3.665c-0.607,0.821-1.595,1.276-2.965,1.366c-1.359,0.089-2.395-0.234-3.105-0.969
		C120.411,14.095,120.003,12.916,119.897,11.294z"/>
	<path d="M132.023,15.164l0.361-11.699l3.911,0.121c1.152,0.036,2.021,0.347,2.607,0.934c0.587,0.587,0.863,1.423,0.829,2.51
		c-0.02,0.642-0.167,1.182-0.441,1.618s-0.67,0.765-1.188,0.985c0.424,0.145,0.725,0.364,0.902,0.658s0.28,0.804,0.307,1.53
		l0.065,1.906c0.015,0.413,0.058,0.716,0.128,0.911c0.071,0.194,0.188,0.344,0.349,0.447l-0.01,0.321l-1.77-0.055
		c-0.073-0.128-0.131-0.32-0.172-0.574c-0.042-0.254-0.07-0.596-0.084-1.025l-0.035-1.517c-0.021-0.764-0.162-1.266-0.424-1.505
		s-0.934-0.375-2.015-0.408l-1.605-0.05l-0.152,4.94L132.023,15.164z M135.814,5.004l-1.91-0.059l-0.12,3.894l1.804,0.056
		c0.916,0.028,1.561-0.103,1.932-0.394c0.372-0.291,0.568-0.787,0.59-1.49c0.021-0.691-0.142-1.192-0.489-1.503
		C137.272,5.199,136.671,5.031,135.814,5.004z"/>
	<path d="M155.314,17.453l2.619-11.408l7.426,1.705l-0.318,1.381l-5.9-1.354l-0.785,3.42l4.801,1.103l-0.313,1.365l-4.801-1.103
		l-1.203,5.243L155.314,17.453z"/>
	<path d="M169.539,19.777l2.824-8.409l-2.045-0.688l0.451-1.343l5.566,1.871l-0.451,1.343l-2.045-0.687l-2.826,8.409l2.047,0.688
		l-0.451,1.343l-5.568-1.871l0.451-1.343L169.539,19.777z"/>
	<path d="M177.146,24.038l4.797-10.677l3.568,1.604c1.053,0.473,1.738,1.092,2.055,1.858c0.318,0.766,0.256,1.645-0.191,2.637
		c-0.262,0.586-0.604,1.028-1.025,1.327c-0.42,0.299-0.91,0.452-1.473,0.458c0.336,0.296,0.531,0.613,0.582,0.953
		c0.053,0.339-0.047,0.85-0.299,1.531l-0.668,1.786c-0.143,0.387-0.221,0.684-0.229,0.891c-0.008,0.207,0.043,0.389,0.152,0.547
		l-0.133,0.293l-1.615-0.726c-0.018-0.146,0.002-0.345,0.061-0.596c0.059-0.251,0.162-0.577,0.314-0.979l0.545-1.417
		c0.273-0.714,0.334-1.231,0.184-1.552c-0.152-0.321-0.721-0.703-1.707-1.146l-1.465-0.659l-2.025,4.508L177.146,24.038z
		 M184.527,16.093l-1.744-0.783l-1.596,3.554l1.645,0.739c0.836,0.376,1.482,0.5,1.936,0.374c0.455-0.127,0.826-0.511,1.115-1.152
		c0.283-0.631,0.324-1.156,0.121-1.575C185.8,16.83,185.308,16.444,184.527,16.093z"/>
	<path d="M190.492,26.155c-0.424,0.739-0.541,1.448-0.355,2.127s0.646,1.229,1.381,1.65c0.666,0.382,1.297,0.521,1.893,0.416
		c0.596-0.105,1.053-0.437,1.373-0.994c0.43-0.753,0.041-1.732-1.166-2.937c-0.242-0.24-0.43-0.426-0.563-0.56
		c-0.963-0.982-1.516-1.774-1.656-2.378c-0.143-0.603-0.012-1.257,0.393-1.962c0.518-0.901,1.23-1.458,2.145-1.672
		c0.914-0.213,1.852-0.045,2.814,0.507c1.102,0.63,1.791,1.404,2.07,2.32c0.277,0.916,0.119,1.894-0.475,2.932l-0.018,0.029
		L197,24.872c0.334-0.707,0.426-1.343,0.271-1.909c-0.152-0.566-0.543-1.028-1.166-1.385c-0.576-0.331-1.121-0.448-1.635-0.353
		c-0.514,0.095-0.91,0.386-1.188,0.872c-0.279,0.486-0.354,0.918-0.225,1.295c0.127,0.377,0.674,1.013,1.637,1.906
		c1.119,1.04,1.764,1.884,1.934,2.532s0.031,1.363-0.418,2.144c-0.564,0.986-1.338,1.584-2.322,1.792
		c-0.982,0.208-2.027-0.004-3.133-0.637c-1.129-0.647-1.832-1.467-2.107-2.46c-0.275-0.994-0.107-2.086,0.506-3.279L190.492,26.155z
		"/>
	<path d="M200,36.62l5.959-8.386l-2.9-2.062l0.822-1.155l7.057,5.016l-0.822,1.155l-2.887-2.052l-5.961,8.386L200,36.62z"/>
</g>
<path fill="none" stroke="#000000" stroke-width="1.5" stroke-linecap="round" stroke-miterlimit="10" d="M35.586,80.21
	c19.053-33.625,55.163-56.315,96.568-56.315c43.584,0,81.295,25.14,99.426,61.708"/>
<path fill="none" stroke="#000000" stroke-width="1.5" stroke-linecap="round" stroke-miterlimit="10" d="M223.194,198.179
	c-20.046,28.738-53.346,47.547-91.039,47.547c-24.632,0-47.394-8.029-65.801-21.623"/>
<g>
	<path d="M74.71,139.584c6.787-0.186,11.91-6.495,14.677-11.234c-0.751,5.472-1.309,11.146-1.182,16.013
		c0.25,9.433,3.677,10.025,5.21,9.986c2.508-0.063,2.565-0.94,2.179-15.368c-0.11-4.202,0.998-9.645,1.907-14.793
		c1.771,5.995,5.637,8.188,10.873,8.048c3.356-0.091,6.089-2.759,8.075-6.408c3.172,0.238,5.658-1.998,11.414-8.425
		c-0.791,12.155-0.822,25.021-0.769,26.972c0.097,3.824,2.548,4.543,4.494,4.493c1.942-0.052,2.957-0.683,2.922-2.083
		c-0.119-4.512,1.111-16.882,2.228-27.654c1.366,3.158,3.923,5.394,8.816,5.262c4.121-0.11,7.047-2.795,9.072-6.31
		c0.804,0.2,1.744,0.306,2.474,0.289c2.807-0.077,6.835-3.376,9.366-5.521c2.803,4.735,8.206,6.547,10.442,6.484
		c8.162-0.219,22.019-15.468,26.93-28.208c0.167,0.003,0.33,0.014,0.488,0.011c2.025-0.055,2.381-0.35,3.422-0.781
		c-0.308,2.115-1.691,7.839-1.595,11.544c0.102,3.705,2.715,10.559,8.299,10.413c13.482-0.365,30.778-23.555,40.132-23.803
		c2.491-0.069,2.82,1.016,2.864,2.594c0.132,4.874-2.275,7.041-3.229,8.213c-0.241,0.308-0.315,0.573-0.312,0.768
		c0.014,0.563,0.615,1.329,1.555,1.784c0.659,0.313,1.533,0.397,2.104,0.382c1.397-0.035,3.757-5.074,3.616-10.251
		c-0.137-5.181-3.427-6.916-7.719-6.803c-11.353,0.306-30.019,20.251-37.605,20.457c-1.582,0.04-1.74-0.38-1.775-1.502
		c-0.026-1.125,3.339-11.22,3.207-15.955c-0.101-3.686-3.387-5.5-4.881-5.458c-2.012,0.055-4.23,3.087-7.253,4.114
		c0.338-1.517,0.514-2.963,0.479-4.297c-0.127-4.775-3.479-5.824-5.5-5.769c-2.025,0.055-3.901,2.616-3.787,6.828
		c0.07,2.814,1.542,5.276,3.893,6.566c-3.571,9.321-11.84,23.808-23.223,24.111c-4.494,0.121-5.069-3.325-5.108-4.724
		c-0.027-0.9,0.083-2.126,0.298-3.537c1.916,0.438,2.746,0.66,4.481,0.613c5.101-0.134,10.939-2.115,10.72-10.372
		c-0.216-8.262-4.969-10.986-7.342-10.924c-7.464,0.2-15.6,11.782-15.345,21.252c0.026,0.928,0.153,1.784,0.329,2.594
		c-2.829,2.244-6.479,5.502-8.865,5.63c1.933-4.884,2.565-10.295,2.5-12.699c-0.132-4.856-3.734-10.797-8.914-10.659
		c-4.38,0.121-8.813,3.574-11.642,7.84c-0.84-2.601-3.198-4.727-5.325-4.67c-1.396,0.038-2.455,2.92-3.259,7.279
		c-2.939,7.625-6.717,14.384-11.031,19.357c-0.048,0.055-0.105,0.113-0.163,0.175c1.278-3.738,1.92-7.79,1.832-10.998
		c-0.171-6.557-4.705-12.268-9.401-12.144c-2.825,0.077-9.814,3.068-12.868,10.208c-0.922-4.045-2.504-6.92-3.444-6.895
		c-1.419,0.04-2.188,1.479-2.078,5.607c0.066,2.404-0.975,8.028-2.034,14.673c-4.143,8.061-11.985,12.035-15.631,12.131
		c-3.106,0.083-4.92-6.314-4.986-8.579c11.093-0.301,14.234-8.686,14.155-11.842c-0.083-3.157-3.567-8.978-9.959-8.805
		c-8.255,0.223-12.261,14.084-12.077,20.719C61.983,130.263,65.906,139.818,74.71,139.584z M199.976,83.111
		c-0.062-2.306,0.448-3.09,0.976-3.106c0.522-0.011,1.19,0.898,1.247,2.967c0.022,0.665-0.232,1.958-0.737,3.646
		C200.512,85.91,200.02,84.616,199.976,83.111z M180.681,88.449c2.425-0.063,2.565,1.815,2.601,3.394
		c0.093,3.522-4.173,9.876-8.18,9.981c-0.879,0.023-1.533,0.041-2.056,0.056C174.575,95.639,177.47,88.537,180.681,88.449z
		 M150.135,94.497c1.498-0.041,1.051,1.307,1.099,3.13s-2.201,22.093-8.962,22.272c-4.859,0.136-4.402-6.968-4.455-9.193
		C137.659,104.996,142.206,94.712,150.135,94.497z M110.633,101.554c1.454-0.04,2.144,1.399,2.192,3.26
		c0.149,5.504-3.466,21.804-9.533,21.972c-3.4,0.091-4.38-6.121-4.495-10.169C98.626,110.136,103.99,101.729,110.633,101.554z
		 M75.013,107.794c4.125-0.113,4.152,3.172,4.174,3.96c0.105,3.764-2.197,9.276-9.608,10.344
		C69.772,116.135,71.125,107.901,75.013,107.794z"/>
	<path d="M14.394,116.937c2.039-0.056,2.592-0.513,2.57-1.381c-0.062-2.189-6.142-1.842-6.313-8.279
		c-0.176-6.435,9.041-17.863,24.54-18.279c12.182-0.325,14.581,4.347,14.687,8.315c0.149,5.707-3.176,20.493-12.252,20.741
		c-0.563,0.011-1.125,0.482-1.103,1.333c0.035,1.217,2.566,2.683,7.574,2.547c5.008-0.135,16.42-4.228,15.994-19.912
		c-0.207-7.611-8.397-16.869-23.774-16.456C14.938,86.14,5.946,101.043,6.13,107.923C6.319,114.806,12.689,116.983,14.394,116.937z"
		/>
	<path d="M32.696,127.966c1.529-15.944,3.049-29.67,3.031-30.463c-0.044-1.574-4.06-4.082-5.944-4.031
		c-3.708,0.1-4.885,20.374-5.544,33.343c-1.489,29.124-5.997,31.129-9.309,31.217c-4.6,0.127-7.543-3.833-9.256-5.732
		c-0.62-0.703-0.949-0.754-1.309-0.743c-1.151,0.03-1.151,1.274-1.151,1.274c0.057,2.008,4.292,9.292,15.1,9
		C25.992,161.626,30.609,149.734,32.696,127.966z"/>
	<path d="M85.126,174.298c0.057,2.15,1.841,3.838,3.984,3.785c2.148-0.061,3.84-1.846,3.778-3.994
		c-0.053-2.146-1.841-3.836-3.989-3.777C86.76,170.37,85.064,172.153,85.126,174.298z"/>
	<path d="M262.166,172.263c-1.897,0.049-7.569,7.203-11.615,7.314c-0.976,0.021-1.739-0.604-1.762-1.492
		c-0.039-1.416,2.72-11.902,2.597-16.336c-0.119-4.43-4.072-6.816-7.407-6.728c-3.343,0.091-6.084,1.921-10.446,7.087
		c-0.102-3.826-3.032-5.162-6.735-5.063c-3.281,0.082-3.993,6.994-4.99,14.064c-0.409,2.93-1.099,5.869-1.564,8.207
		c-4.617,7.045-11.866,9.93-15.96,10.039c-4.367,0.117-5.966-1.512-6.019-3.697c-0.049-1.611,0.514-3.795,0.975-5.342
		c1.099,0.242,4.306,0.822,5.944,0.779c9.718-0.26,11.36-9.113,11.281-12.027c-0.079-2.916-3.075-10.49-9.326-10.322
		c-9.981,0.268-16.791,18.152-16.642,23.781c0.018,0.775,0.181,1.561,0.426,2.338c-1.933,2.383-9.111,7.574-9.55,7.588
		c-0.448,0.012-1.227-0.131-1.262-1.43c-0.035-1.291,3.374-17.826,3.313-19.936c-0.053-2.102-0.742-6.621-5.354-6.5
		c-4.613,0.125-8.378,3.121-14.832,7.369c-0.013,0.008-0.026,0.023-0.044,0.029c3.713-20.408,10.118-42.954,20.429-43.229
		c11.541-0.314,11.536,6.92,28.107,6.475c16.571-0.446,18.64-11.863,18.622-12.469c-0.018-0.607-0.294-1.938-2.179-1.889
		c-3.216,0.087-10.275,8.663-18.771,8.889c-12.573,0.336-16.726-5.021-23.891-4.823c-21.548,0.577-33.542,52.808-33.256,64.796
		c-0.079,0.098-0.158,0.193-0.237,0.297c-2.078,2.605-7.877,9.941-14.757,10.127c-5.386,0.143-5.821-5.518-5.852-6.736
		c-0.132-4.971,2.521-19.104,7.503-19.234c2.834-0.076,3.3,2.178,3.335,3.637c0.039,1.453-0.958,2.014-0.923,3.105
		c0.026,1.09,0.694,1.885,1.705,1.859c1.019-0.029,2.385-1.564,2.306-4.725c-0.088-3.156-1.045-7.18-8.044-6.996
		c-9.475,0.26-13.868,14.635-13.67,22.004c0.013,0.377,0.057,0.744,0.109,1.104c-1.704,1.299-8.681,8.236-11.602,8.316
		c-0.457,0.012-0.975-0.156-0.998-0.986c-0.057-2.066,3.734-26.75,5.593-39.648c4.617,0.785,7.095,3.055,17.717,2.77
		c13.197-0.355,20.278-8.287,20.841-9.107c0.563-0.826,3.629-8.843,3.607-9.823c-0.018-0.613-0.105-1.194-0.69-1.183
		c-3.422,0.096-13.526,13.402-27.936,13.789c-3.883,0.102-7.807-0.453-12.946-0.66c0.259-1.912,0.413-3.165,0.404-3.464
		c-0.057-1.941-2.372-4.513-6.098-4.411c-0.958,0.026-2.091,3.271-3.207,8.032c-6.216,0.668-12.318,2.809-14.879,4.467
		c-0.918,0.596-0.98,0.965-0.967,1.379c0.018,0.672,0.624,1.211,1.279,1.197c4.23-0.113,8.474-1.779,13.632-2.682
		c-2.192,10.961-4.134,26.078-4.415,31.924c-0.066,0.125-0.132,0.248-0.207,0.393c-3.343,6.656-10.39,13.443-14.361,13.514
		c-0.931,0.021-0.966-0.582-1.006-2.1c-0.123-4.678,4.064-18.314,4.016-20.143c-0.048-1.82-3.348-3.836-5.935-3.771
		c-3.159,0.088-6.559,15.938-6.436,20.49c0.018,0.654,0.048,1.568,0.189,2.572c-1.362,1.754-2.566,3.387-7.258,3.512
		c-3.945,0.109-6.124-15.387-11.593-19.982c10.223-5.338,13.421-29.564,19.615-29.732c1.502-0.041,2.785-0.395,2.754-1.674
		c-0.04-1.395-0.465-1.951-4.468-1.842c-15.754,0.422-17.752,30.414-28.254,31.43c1.375-14.301,2.5-28.152,2.42-31.082
		c-0.035-1.212,2.54-3.898,2.408-8.845s-4.635-6.164-6.458-6.113c-1.819,0.048-2.417,0.487-2.381,1.945
		c0.514,19.068-33.19,26.472-32.813,40.558c0.149,5.283,7.49,10.516,12.195,10.385c1.819-0.045,2.496-0.348,2.469-1.564
		c-0.057-2.143-7.618-1.533-7.802-8.336c-0.141-5.184,9.994-10.879,21.72-17.68c-1.107,17.49-1.309,51.188-13.711,51.521
		c-4.099,0.107-12.297-9.91-12.683-11.279c-0.272-0.918-0.804-1.211-1.354-1.195c-0.76,0.018-1.204,0.49-1.177,1.4
		c0.07,2.746,6.977,16.979,21.465,16.586c11.839-0.316,13.61-15.281,15.205-31.234c7.471-0.201,11.451,23.592,24.2,23.248
		c2.825-0.074,3.893-1.715,7.007-5.699c1.226,1.832,3.352,3.232,7.077,3.135c8.444-0.227,13.391-8.318,15.174-11.951
		c0.153-0.314,0.303-0.668,0.448-1.049c1.063,4.279,3.915,7.037,9.34,6.896c5.562-0.152,10.179-6.09,11.761-9.285
		c2.333,4.764,8.136,7.299,11.039,7.217c3.646-0.096,11.726-1.959,16.36-10.428c0.146-0.264,0.286-0.521,0.413-0.766
		c0.756,8.418,3.335,7.898,4.564,7.871c1.375-0.037,2.324-1.283,2.474-2.826c0.514-4.781,1.362-11.883,2.618-19.742
		c0.005-0.008,0.009-0.008,0.014-0.016c1.832-1.533,8.162-7.387,10.627-7.447c0.501-0.02,0.979,0.586,1.015,1.518
		c0.136,3.625-2.425,12.744-2.363,14.838c0.065,2.635,1.396,11.385,7.508,11.223c6.115-0.164,11.383-9.016,13.065-11.289
		c0.018-0.021,0.026-0.045,0.048-0.07c2.359,3.914,7.135,7.127,11.721,7.004c6.361-0.17,10.764-4.867,15.311-9.117
		c0.286-0.268,0.558-0.561,0.826-0.875c0.584,4.033,3.369,4.123,4.647,4.086c1.393-0.037,3.862-1.076,4.613-4.859
		c0.378-2.564,1.107-6.945,2.126-11.158c0.444-1.826,0.932-3.609,1.349-5.209c0.005-0.006,0.009-0.006,0.009-0.008
		c3.124-2.98,8.193-7.9,9.433-7.932c0.364-0.012,0.883-0.006,0.914,0.842c0.035,1.357-2.685,11.74-2.597,15.018
		c0.088,3.281,3.26,8.461,8.892,8.313c5.628-0.154,14.194-7.443,14.129-9.873C263.366,172.792,262.895,172.243,262.166,172.263z
		 M208.618,161.987c1.432-0.035,2.732,2.145,2.803,4.758c0.07,2.607-4.99,9.82-9.09,9.934c-1.001,0.025-1.335-0.01-1.722-0.074
		C201.922,171.585,207.343,162.024,208.618,161.987z"/>
</g>
<path fill="none" stroke="#010101" stroke-width="3" stroke-miterlimit="10" d="M132.155,8.903"/>
<path fill="none" stroke="#FFFFFF" stroke-width="3" stroke-miterlimit="10" d="M249.083,181.579"/>
<path fill="none" stroke="#010101" stroke-width="3" stroke-miterlimit="10" d="M132.155,8.903"/>
<path fill="none" stroke="#231F20" stroke-width="0.25" stroke-miterlimit="10" d="M132.058,252.216"/>
</svg>
